<svg width="587" height="218" viewBox="0 0 587 218" fill="none" xmlns="http://www.w3.org/2000/svg">
<path d="M100.567 218V171.454L0 171.159V136.103L91.6026 0H138.384V137.576H172V171.454H138.384V218H100.567ZM37.5375 137.576H100.567V43.8946L37.5375 137.576Z" fill="#424242"/>
<path d="M276.5 218C262.706 218 250.349 215.132 239.429 209.395C228.7 203.658 219.695 195.818 212.415 185.874C205.135 175.739 199.579 164.169 195.748 151.166C191.916 137.971 190 123.916 190 109C190 94.2754 191.916 80.3158 195.748 67.1211C199.579 53.9263 205.135 42.357 212.415 32.4132C219.695 22.2781 228.7 14.3421 239.429 8.60527C250.349 2.86842 262.706 0 276.5 0C290.294 0 302.555 2.86842 313.284 8.60527C324.204 14.3421 333.305 22.2781 340.585 32.4132C347.865 42.357 353.421 53.9263 357.253 67.1211C361.084 80.3158 363 94.2754 363 109C363 123.916 361.084 137.971 357.253 151.166C353.421 164.169 347.865 175.739 340.585 185.874C333.305 195.818 324.204 203.658 313.284 209.395C302.555 215.132 290.294 218 276.5 218ZM276.5 183.292C289.911 183.292 300.927 177.077 309.548 164.647C318.361 152.218 322.767 133.668 322.767 109C322.767 84.5228 318.361 66.1649 309.548 53.9263C300.927 41.4965 289.911 35.2816 276.5 35.2816C263.089 35.2816 251.977 41.4965 243.164 53.9263C234.543 66.1649 230.233 84.5228 230.233 109C230.233 133.477 234.543 152.026 243.164 164.647C251.977 177.077 263.089 183.292 276.5 183.292Z" fill="#424242"/>
<path d="M447.362 197.685L470.018 156.505L381 102.223L398.064 71.2073L545.524 0L587 25.1298L520.036 146.847L549.84 164.904L533.35 194.877L503.547 176.82L480.891 218L447.362 197.685ZM430.627 92.6745L486.508 126.532L532.106 43.65L430.627 92.6745Z" fill="#424242"/>
</svg>
