<svg width="164" height="60" viewBox="0 0 164 60" fill="none" xmlns="http://www.w3.org/2000/svg">
<g clip-path="url(#clip0_608_14)">
<path d="M65.6371 44.6318C63.8602 44.6318 62.3317 44.1751 61.0514 43.2617C59.7711 42.3483 58.7912 41.0828 58.1118 39.4648C57.4586 37.8468 57.1319 36.0071 57.1319 33.9455C57.1319 31.8578 57.4586 30.0051 58.1118 28.3871C58.7912 26.7692 59.7711 25.5036 61.0514 24.5902C62.3579 23.6508 63.9126 23.181 65.7155 23.181C67.5184 23.181 68.9555 23.5985 70.0269 24.4336C71.0982 25.2687 71.9082 26.2342 72.4569 27.3303H72.7313V15H76.8467V44.3578H72.7313V40.3651H72.4569C71.8821 41.5134 71.0459 42.518 69.9485 43.3792C68.851 44.2143 67.414 44.6318 65.6371 44.6318ZM66.9697 41.2654C68.825 41.2654 70.236 40.5608 71.2027 39.1517C72.1957 37.7425 72.6921 36.0071 72.6921 33.9455C72.6921 31.884 72.1957 30.1486 71.2027 28.7394C70.236 27.3303 68.825 26.6257 66.9697 26.6257C65.0623 26.6257 63.6382 27.3303 62.6975 28.7394C61.7569 30.1226 61.2865 31.8449 61.2865 33.9064C61.2865 35.9941 61.7569 37.7425 62.6975 39.1517C63.6643 40.5608 65.0884 41.2654 66.9697 41.2654ZM81.6945 23.729H85.7315V27.0171H85.9667C86.3063 26.1037 86.9074 25.3339 87.7696 24.7076C88.658 24.0553 89.7946 23.729 91.1796 23.729C91.5454 23.729 91.859 23.7421 92.1202 23.7682C92.3815 23.7942 92.6429 23.8596 92.9041 23.9639L92.7473 27.8C92.0418 27.5912 91.3103 27.4868 90.5525 27.4868C89.0108 27.4868 87.822 27.9305 86.9858 28.8177C86.1496 29.6789 85.7315 31.1141 85.7315 33.1235V44.3578H81.6945V23.729ZM104.188 44.6318C102.072 44.6318 100.282 44.136 98.8185 43.1443C97.3552 42.1526 96.2578 40.8479 95.5262 39.2299C94.8207 37.5859 94.4679 35.8244 94.4679 33.9455C94.4679 32.0406 94.8207 30.2791 95.5262 28.6611C96.2578 27.0171 97.3552 25.6993 98.8185 24.7076C100.282 23.6899 102.072 23.181 104.188 23.181C106.305 23.181 108.094 23.6899 109.558 24.7076C111.021 25.6993 112.119 27.0171 112.85 28.6611C113.582 30.2791 113.948 32.0275 113.948 33.9064C113.948 35.7853 113.582 37.5468 112.85 39.1908C112.119 40.8088 111.021 42.1266 109.558 43.1443C108.094 44.136 106.305 44.6318 104.188 44.6318ZM104.188 41.2654C105.991 41.2654 107.389 40.5608 108.382 39.1517C109.401 37.7425 109.911 35.981 109.911 33.8673C109.911 31.7535 109.401 30.0051 108.382 28.622C107.389 27.2389 105.991 26.5474 104.188 26.5474C102.411 26.5474 101.013 27.252 99.9943 28.6611C98.9753 30.0443 98.4658 31.7795 98.4658 33.8673C98.4658 35.981 98.9622 37.7425 99.9551 39.1517C100.974 40.5608 102.385 41.2654 104.188 41.2654ZM126.893 44.6318C124.777 44.6318 122.987 44.136 121.524 43.1443C120.06 42.1526 118.963 40.8479 118.231 39.2299C117.526 37.5859 117.173 35.8244 117.173 33.9455C117.173 32.0406 117.526 30.2791 118.231 28.6611C118.963 27.0171 120.06 25.6993 121.524 24.7076C122.987 23.6899 124.777 23.181 126.893 23.181C129.01 23.181 130.8 23.6899 132.263 24.7076C133.726 25.6993 134.824 27.0171 135.555 28.6611C136.287 30.2791 136.653 32.0275 136.653 33.9064C136.653 35.7853 136.287 37.5468 135.555 39.1908C134.824 40.8088 133.726 42.1266 132.263 43.1443C130.8 44.136 129.01 44.6318 126.893 44.6318ZM126.893 41.2654C128.696 41.2654 130.094 40.5608 131.087 39.1517C132.106 37.7425 132.616 35.981 132.616 33.8673C132.616 31.7535 132.106 30.0051 131.087 28.622C130.094 27.2389 128.696 26.5474 126.893 26.5474C125.117 26.5474 123.718 27.252 122.699 28.6611C121.68 30.0443 121.171 31.7795 121.171 33.8673C121.171 35.981 121.667 37.7425 122.66 39.1517C123.679 40.5608 125.09 41.2654 126.893 41.2654ZM146.972 26.9388V37.9773C146.972 38.9428 147.012 39.6474 147.09 40.0911C147.195 40.5348 147.443 40.8871 147.835 41.148C148.253 41.4089 148.932 41.5394 149.873 41.5394C150.526 41.5394 151.166 41.4611 151.793 41.3046V44.162C151.611 44.2403 151.179 44.3186 150.5 44.3969C149.821 44.4752 149.141 44.5143 148.462 44.5143C146.816 44.5143 145.588 44.2795 144.778 43.8097C143.968 43.314 143.445 42.6877 143.21 41.9309C143.001 41.148 142.896 40.1302 142.896 38.8776L142.935 26.9388H139.212V23.729H142.935V16.9572H146.972V23.729H151.793V26.9388H146.972Z" fill="#ffffff"/>
<mask id="mask0_608_14" style="mask-type:luminance" maskUnits="userSpaceOnUse" x="12" y="10" width="34" height="40">
<path d="M45.1319 10H12V49.2932H45.1319V10Z" fill="white"/>
</mask>
<g mask="url(#mask0_608_14)">
<path d="M35.4732 25.8463C37.3816 24.541 39.6908 23.7774 42.1791 23.7774C43.0281 23.7774 44.2432 23.9892 45.1328 24.1869V12.4817C45.1328 11.111 44.0204 10 42.6479 10H35.4741V25.8463H35.4732Z" fill="#fff"/>
<path d="M30.3377 47.3559C28.4839 48.5488 26.2773 49.2411 23.9084 49.2411C17.3433 49.2411 12.0215 43.9262 12.0215 37.3704C12.0215 30.8147 17.3433 25.4998 23.9076 25.4998C26.2765 25.4998 28.4839 26.1921 30.3369 27.385V10H14.4849C13.1124 10 12 11.111 12 12.4817V46.8117C12 48.1823 13.1124 49.2932 14.4849 49.2932H30.3377V47.3559Z" fill="#fff"/>
<path d="M23.9076 30.6079C20.1794 30.6079 17.157 33.6356 17.157 37.3706C17.157 41.1054 20.1794 44.1331 23.9076 44.1331C26.9177 44.1331 29.4663 42.1593 30.3369 39.4337V36.674C30.3078 36.3357 30.2921 35.9941 30.2921 35.6491C30.2921 35.4993 30.2954 35.3513 30.3012 35.2023C29.3992 32.5321 26.8779 30.6087 23.9076 30.6087V30.6079Z" fill="#fff"/>
<path d="M42.1783 28.9062C38.7557 28.9062 35.9304 31.4509 35.4888 34.7482H35.4724V49.2933H42.6462C44.0187 49.2933 45.1311 48.1824 45.1311 46.8117V29.5085C44.2713 29.1801 43.0521 28.9071 42.1774 28.9071L42.1783 28.9062Z" fill="#fff"/>
</g>
</g>
<defs>
<clipPath id="clip0_608_14">
<rect width="164" height="60" fill="white"/>
</clipPath>
</defs>
</svg>
