<svg width="187" height="66" viewBox="0 0 187 66" fill="none" xmlns="http://www.w3.org/2000/svg">
<path d="M69.0111 57.2502C66.642 57.2502 64.6039 56.6414 62.8968 55.4235C61.1897 54.2057 59.8833 52.5183 58.9774 50.3609C58.1065 48.2036 57.6709 45.7506 57.6709 43.0019C57.6709 40.2183 58.1065 37.748 58.9774 35.5907C59.8833 33.4334 61.1897 31.746 62.8968 30.5281C64.6389 29.2755 66.7117 28.6493 69.1157 28.6493C71.5196 28.6493 73.4357 29.2059 74.8642 30.3194C76.2926 31.4329 77.3726 32.7202 78.1042 34.1816H78.47V17.7412H83.9573V56.8849H78.47V51.5614H78.1042C77.3378 53.0924 76.2229 54.4319 74.7596 55.5801C73.2964 56.6936 71.3803 57.2502 69.0111 57.2502ZM70.7879 52.7618C73.2616 52.7618 75.1429 51.8223 76.4319 49.9434C77.7559 48.0645 78.4178 45.7506 78.4178 43.0019C78.4178 40.2532 77.7559 37.9394 76.4319 36.0605C75.1429 34.1816 73.2616 33.2421 70.7879 33.2421C68.2447 33.2421 66.3459 34.1816 65.0917 36.0605C63.8375 37.9046 63.2104 40.201 63.2104 42.9497C63.2104 45.7334 63.8375 48.0645 65.0917 49.9434C66.3807 51.8223 68.2795 52.7618 70.7879 52.7618ZM90.421 29.3799H95.8037V33.764H96.1173C96.5701 32.5462 97.3715 31.5198 98.5212 30.6847C99.7057 29.8149 101.221 29.3799 103.068 29.3799C103.556 29.3799 103.974 29.3974 104.322 29.4321C104.67 29.4669 105.019 29.554 105.367 29.6931L105.158 34.8079C104.217 34.5294 103.242 34.3903 102.232 34.3903C100.176 34.3903 98.5909 34.9819 97.476 36.1648C96.3611 37.3131 95.8037 39.2267 95.8037 41.9059V56.8849H90.421V29.3799ZM120.413 57.2502C117.591 57.2502 115.204 56.5892 113.253 55.2669C111.302 53.9447 109.839 52.2051 108.863 50.0478C107.923 47.8557 107.452 45.5071 107.452 43.0019C107.452 40.462 107.923 38.1134 108.863 35.9561C109.839 33.764 111.302 32.007 113.253 30.6847C115.204 29.3277 117.591 28.6493 120.413 28.6493C123.235 28.6493 125.621 29.3277 127.572 30.6847C129.523 32.007 130.986 33.764 131.962 35.9561C132.937 38.1134 133.425 40.4445 133.425 42.9497C133.425 45.4549 132.937 47.8036 131.962 49.9956C130.986 52.1529 129.523 53.91 127.572 55.2669C125.621 56.5892 123.235 57.2502 120.413 57.2502ZM120.413 52.7618C122.816 52.7618 124.68 51.8223 126.004 49.9434C127.363 48.0645 128.042 45.7159 128.042 42.8975C128.042 40.0792 127.363 37.748 126.004 35.9039C124.68 34.0597 122.816 33.1377 120.413 33.1377C118.043 33.1377 116.18 34.0772 114.821 35.9561C113.462 37.8002 112.783 40.1139 112.783 42.8975C112.783 45.7159 113.445 48.0645 114.769 49.9434C116.127 51.8223 118.009 52.7618 120.413 52.7618ZM150.686 57.2502C147.864 57.2502 145.478 56.5892 143.526 55.2669C141.576 53.9447 140.112 52.2051 139.137 50.0478C138.196 47.8557 137.726 45.5071 137.726 43.0019C137.726 40.462 138.196 38.1134 139.137 35.9561C140.112 33.764 141.576 32.007 143.526 30.6847C145.478 29.3277 147.864 28.6493 150.686 28.6493C153.508 28.6493 155.895 29.3277 157.845 30.6847C159.797 32.007 161.26 33.764 162.235 35.9561C163.211 38.1134 163.699 40.4445 163.699 42.9497C163.699 45.4549 163.211 47.8036 162.235 49.9956C161.26 52.1529 159.797 53.91 157.845 55.2669C155.895 56.5892 153.508 57.2502 150.686 57.2502ZM150.686 52.7618C153.09 52.7618 154.954 51.8223 156.278 49.9434C157.636 48.0645 158.316 45.7159 158.316 42.8975C158.316 40.0792 157.636 37.748 156.278 35.9039C154.954 34.0597 153.09 33.1377 150.686 33.1377C148.317 33.1377 146.453 34.0772 145.094 35.9561C143.736 37.8002 143.056 40.1139 143.056 42.8975C143.056 45.7159 143.718 48.0645 145.042 49.9434C146.401 51.8223 148.282 52.7618 150.686 52.7618ZM177.458 33.6596V48.3777C177.458 49.665 177.511 50.6044 177.615 51.196C177.754 51.7876 178.085 52.2573 178.608 52.6052C179.165 52.9531 180.071 53.1271 181.325 53.1271C182.196 53.1271 183.05 53.0227 183.886 52.8139V56.6239C183.642 56.7283 183.067 56.8327 182.162 56.9371C181.256 57.0415 180.35 57.0937 179.444 57.0937C177.249 57.0937 175.612 56.7805 174.532 56.1542C173.452 55.4932 172.755 54.6581 172.441 53.649C172.163 52.6052 172.023 51.2482 172.023 49.5781L172.076 33.6596H167.111V29.3799H172.076V20.3508H177.458V29.3799H183.886V33.6596H177.458Z" fill="black"/>
<mask id="mask0_1879_643" style="mask-type:luminance" maskUnits="userSpaceOnUse" x="0" y="4" width="45" height="54">
<path d="M44.1759 4.69336H0V57.0843H44.1759V4.69336Z" fill="white"/>
</mask>
<g mask="url(#mask0_1879_643)">
<path d="M31.2974 25.8217C33.8419 24.0814 36.9209 23.0633 40.2386 23.0633C41.3706 23.0633 42.9906 23.3456 44.1768 23.6092V8.00227C44.1768 6.17464 42.6936 4.69336 40.8636 4.69336H31.2985V25.8217H31.2974Z" fill="black"/>
<path d="M24.4503 54.5012C21.9785 56.0917 19.0364 57.0148 15.8779 57.0148C7.12446 57.0148 0.0287143 49.9282 0.0287143 41.1873C0.0287143 32.4463 7.12446 25.3597 15.8768 25.3597C19.0353 25.3597 21.9785 26.2828 24.4492 27.8734V4.69336H3.31319C1.4832 4.69336 0 6.17464 0 8.00227V53.7756C0 55.603 1.4832 57.0843 3.31319 57.0843H24.4503V54.5012Z" fill="black"/>
<path d="M15.8768 32.1709C10.9059 32.1709 6.87598 36.2079 6.87598 41.1878C6.87598 46.1676 10.9059 50.2046 15.8768 50.2046C19.8903 50.2046 23.2884 47.5729 24.4492 43.9386V40.2591C24.4105 39.808 24.3894 39.3525 24.3894 38.8925C24.3894 38.6928 24.394 38.4955 24.4017 38.2968C23.199 34.7365 19.8373 32.172 15.8768 32.172V32.1709Z" fill="black"/>
<path d="M40.2376 29.9014C35.6741 29.9014 31.9071 33.2942 31.3184 37.6907H31.2964V57.0842H40.8615C42.6915 57.0842 44.1747 55.6029 44.1747 53.7753V30.7043C43.0284 30.2665 41.4027 29.9025 40.2365 29.9025L40.2376 29.9014Z" fill="black"/>
</g>
</svg>
